<svg width="30" height="30" viewBox="0 0 30 30" fill="none" xmlns="http://www.w3.org/2000/svg">
<g clip-path="url(#clip0_409_914)">
<path d="M22.5 0H10C8.78529 0.00159797 7.59737 0.357132 6.58151 1.02312C5.56565 1.68912 4.76588 2.6367 4.28 3.75H2.5C2.16848 3.75 1.85054 3.8817 1.61612 4.11612C1.3817 4.35054 1.25 4.66848 1.25 5C1.25 5.33152 1.3817 5.64946 1.61612 5.88388C1.85054 6.1183 2.16848 6.25 2.5 6.25H3.75V8.75H2.5C2.16848 8.75 1.85054 8.8817 1.61612 9.11612C1.3817 9.35054 1.25 9.66848 1.25 10C1.25 10.3315 1.3817 10.6495 1.61612 10.8839C1.85054 11.1183 2.16848 11.25 2.5 11.25H3.75V13.75H2.5C2.16848 13.75 1.85054 13.8817 1.61612 14.1161C1.3817 14.3505 1.25 14.6685 1.25 15C1.25 15.3315 1.3817 15.6495 1.61612 15.8839C1.85054 16.1183 2.16848 16.25 2.5 16.25H3.75V18.75H2.5C2.16848 18.75 1.85054 18.8817 1.61612 19.1161C1.3817 19.3505 1.25 19.6685 1.25 20C1.25 20.3315 1.3817 20.6495 1.61612 20.8839C1.85054 21.1183 2.16848 21.25 2.5 21.25H3.75V23.75H2.5C2.16848 23.75 1.85054 23.8817 1.61612 24.1161C1.3817 24.3505 1.25 24.6685 1.25 25C1.25 25.3315 1.3817 25.6495 1.61612 25.8839C1.85054 26.1183 2.16848 26.25 2.5 26.25H4.28C4.76588 27.3633 5.56565 28.3109 6.58151 28.9769C7.59737 29.6429 8.78529 29.9984 10 30H22.5C24.157 29.998 25.7456 29.3389 26.9172 28.1672C28.0889 26.9956 28.748 25.407 28.75 23.75V6.25C28.748 4.59301 28.0889 3.00445 26.9172 1.83277C25.7456 0.661102 24.157 0.00198482 22.5 0V0ZM26.25 23.75C26.25 24.7446 25.8549 25.6984 25.1517 26.4017C24.4484 27.1049 23.4946 27.5 22.5 27.5H10C9.00544 27.5 8.05161 27.1049 7.34835 26.4017C6.64509 25.6984 6.25 24.7446 6.25 23.75V6.25C6.25 5.25544 6.64509 4.30161 7.34835 3.59835C8.05161 2.89509 9.00544 2.5 10 2.5H22.5C23.4946 2.5 24.4484 2.89509 25.1517 3.59835C25.8549 4.30161 26.25 5.25544 26.25 6.25V23.75ZM16.25 15C17.2446 15 18.1984 14.6049 18.9017 13.9017C19.6049 13.1984 20 12.2446 20 11.25C20 10.2554 19.6049 9.30161 18.9017 8.59835C18.1984 7.89509 17.2446 7.5 16.25 7.5C15.2554 7.5 14.3016 7.89509 13.5983 8.59835C12.8951 9.30161 12.5 10.2554 12.5 11.25C12.5 12.2446 12.8951 13.1984 13.5983 13.9017C14.3016 14.6049 15.2554 15 16.25 15V15ZM22.5 22.5C22.5 22.8315 22.3683 23.1495 22.1339 23.3839C21.8995 23.6183 21.5815 23.75 21.25 23.75C20.9185 23.75 20.6005 23.6183 20.3661 23.3839C20.1317 23.1495 20 22.8315 20 22.5C20 21.5054 19.6049 20.5516 18.9017 19.8483C18.1984 19.1451 17.2446 18.75 16.25 18.75C15.2554 18.75 14.3016 19.1451 13.5983 19.8483C12.8951 20.5516 12.5 21.5054 12.5 22.5C12.5 22.8315 12.3683 23.1495 12.1339 23.3839C11.8995 23.6183 11.5815 23.75 11.25 23.75C10.9185 23.75 10.6005 23.6183 10.3661 23.3839C10.1317 23.1495 10 22.8315 10 22.5C10.2637 14.24 22.2387 14.2425 22.5 22.5Z" fill="#374957"/>
</g>
<defs>
<clipPath id="clip0_409_914">
<rect width="30" height="30" fill="white"/>
</clipPath>
</defs>
</svg>
