<svg width="30" height="30" viewBox="0 0 30 30" fill="none" xmlns="http://www.w3.org/2000/svg">
<g clip-path="url(#clip0_409_926)">
<path d="M23.75 5H23.115L20.385 1.46C20.0332 1.00726 19.5829 0.640521 19.0683 0.387568C18.5538 0.134614 17.9884 0.0020788 17.415 0L12.585 0C12.0116 0.0020788 11.4462 0.134614 10.9317 0.387568C10.4171 0.640521 9.96684 1.00726 9.615 1.46L6.885 5H6.25C4.59301 5.00198 3.00445 5.6611 1.83277 6.83278C0.661102 8.00445 0.00198482 9.59301 0 11.25L0 23.75C0.00198482 25.407 0.661102 26.9956 1.83277 28.1672C3.00445 29.3389 4.59301 29.998 6.25 30H23.75C25.407 29.998 26.9956 29.3389 28.1672 28.1672C29.3389 26.9956 29.998 25.407 30 23.75V11.25C29.998 9.59301 29.3389 8.00445 28.1672 6.83278C26.9956 5.6611 25.407 5.00198 23.75 5ZM11.595 2.9875C11.7121 2.83632 11.8621 2.71383 12.0337 2.62935C12.2052 2.54488 12.3938 2.50064 12.585 2.5H17.415C17.6062 2.50082 17.7947 2.54514 17.9662 2.62961C18.1377 2.71407 18.2878 2.83646 18.405 2.9875L19.9575 5H10.0425L11.595 2.9875ZM27.5 23.75C27.5 24.7446 27.1049 25.6984 26.4017 26.4017C25.6984 27.1049 24.7446 27.5 23.75 27.5H6.25C5.25544 27.5 4.30161 27.1049 3.59835 26.4017C2.89509 25.6984 2.5 24.7446 2.5 23.75V11.25C2.5 10.2554 2.89509 9.30161 3.59835 8.59835C4.30161 7.89509 5.25544 7.5 6.25 7.5H23.75C24.7446 7.5 25.6984 7.89509 26.4017 8.59835C27.1049 9.30161 27.5 10.2554 27.5 11.25V23.75Z" fill="#374957"/>
<path d="M15 9.99988C13.5166 9.99988 12.0666 10.4397 10.8332 11.2639C9.59986 12.088 8.63856 13.2593 8.07091 14.6298C7.50325 16.0002 7.35472 17.5082 7.64411 18.9631C7.9335 20.4179 8.64781 21.7543 9.6967 22.8032C10.7456 23.8521 12.082 24.5664 13.5368 24.8558C14.9917 25.1452 16.4997 24.9966 17.8701 24.429C19.2406 23.8613 20.4119 22.9 21.236 21.6667C22.0601 20.4333 22.5 18.9832 22.5 17.4999C22.498 15.5114 21.7072 13.6049 20.3011 12.1988C18.895 10.7927 16.9885 10.0019 15 9.99988ZM15 22.4999C14.0111 22.4999 13.0444 22.2066 12.2222 21.6572C11.3999 21.1078 10.759 20.3269 10.3806 19.4133C10.0022 18.4997 9.90315 17.4943 10.0961 16.5244C10.289 15.5545 10.7652 14.6636 11.4645 13.9643C12.1637 13.2651 13.0546 12.7889 14.0246 12.596C14.9945 12.403 15.9998 12.502 16.9134 12.8805C17.8271 13.2589 18.6079 13.8998 19.1574 14.722C19.7068 15.5443 20 16.511 20 17.4999C20 18.826 19.4732 20.0977 18.5355 21.0354C17.5979 21.9731 16.3261 22.4999 15 22.4999Z" fill="#374957"/>
</g>
<defs>
<clipPath id="clip0_409_926">
<rect width="30" height="30" fill="white"/>
</clipPath>
</defs>
</svg>
