<svg width="30" height="30" viewBox="0 0 30 30" fill="none" xmlns="http://www.w3.org/2000/svg">
<g clip-path="url(#clip0_409_929)">
<path d="M14.9986 15C15.9875 15 16.9542 14.7068 17.7765 14.1573C18.5987 13.6079 19.2396 12.827 19.618 11.9134C19.9964 10.9998 20.0955 9.99445 19.9025 9.02455C19.7096 8.05464 19.2334 7.16373 18.5341 6.46447C17.8349 5.7652 16.944 5.289 15.9741 5.09607C15.0042 4.90315 13.9988 5.00216 13.0852 5.3806C12.1716 5.75904 11.3907 6.3999 10.8413 7.22215C10.2919 8.04439 9.99861 9.01109 9.99861 10C9.99861 11.3261 10.5254 12.5979 11.4631 13.5355C12.4008 14.4732 13.6725 15 14.9986 15ZM14.9986 7.5C15.4931 7.5 15.9764 7.64662 16.3875 7.92133C16.7987 8.19603 17.1191 8.58648 17.3083 9.04329C17.4975 9.50011 17.547 10.0028 17.4506 10.4877C17.3541 10.9727 17.116 11.4181 16.7664 11.7678C16.4167 12.1174 15.9713 12.3555 15.4863 12.452C15.0014 12.5484 14.4987 12.4989 14.0419 12.3097C13.5851 12.1205 13.1946 11.8 12.9199 11.3889C12.6452 10.9778 12.4986 10.4945 12.4986 10C12.4986 9.33696 12.762 8.70107 13.2308 8.23223C13.6997 7.76339 14.3356 7.5 14.9986 7.5ZM25.8236 11.4462L24.9249 11.1475C25.0866 9.7474 24.9505 8.32893 24.5256 6.98511C24.1007 5.64128 23.3965 4.40245 22.4592 3.34986C21.522 2.29727 20.3728 1.4547 19.087 0.877392C17.8013 0.300084 16.408 0.00108435 14.9986 0C13.5708 0.000551212 12.1597 0.307118 10.8604 0.899044C9.56105 1.49097 8.40369 2.35451 7.46626 3.43147C6.52883 4.50843 5.83312 5.77381 5.42599 7.14234C5.01887 8.51087 4.90979 9.95076 5.10611 11.365C3.9099 11.588 2.80376 12.1524 1.9211 12.99C1.31007 13.5709 0.824317 14.2707 0.493703 15.0463C0.163089 15.8219 -0.00539656 16.6569 -0.00139521 17.5V22.5938C0.00123178 23.9454 0.440845 25.26 1.25184 26.3413C2.06284 27.4227 3.20175 28.2128 4.49861 28.5938L8.08611 29.7187C8.68868 29.9063 9.31627 30.0011 9.94736 30C10.5198 29.9993 11.0896 29.9211 11.6411 29.7675L18.8661 27.63C19.5098 27.4543 20.1887 27.4543 20.8324 27.63L23.8161 28.63C24.5515 28.809 25.3179 28.8187 26.0576 28.6584C26.7972 28.4981 27.4909 28.172 28.0862 27.7046C28.6815 27.2373 29.1629 26.6409 29.4942 25.9604C29.8255 25.2799 29.9979 24.5331 29.9986 23.7762V17.34C29.9958 16.0468 29.593 14.786 28.8456 13.7307C28.0981 12.6753 27.0426 11.8769 25.8236 11.445V11.4462ZM9.69611 4.7025C10.3914 4.00436 11.2178 3.4504 12.1277 3.07241C13.0377 2.69443 14.0133 2.49985 14.9986 2.49985C15.9839 2.49985 16.9596 2.69443 17.8695 3.07241C18.7794 3.4504 19.6058 4.00436 20.3011 4.7025C21.7038 6.11393 22.4923 8.02227 22.4948 10.0122C22.4974 12.0021 21.7139 13.9124 20.3149 15.3275L15.8736 19.6463C15.6418 19.8735 15.3301 20.0008 15.0055 20.0008C14.6808 20.0008 14.3692 19.8735 14.1374 19.6463L9.69611 15.3463C8.29044 13.9317 7.50149 12.0185 7.50149 10.0244C7.50149 8.0302 8.29044 6.11701 9.69611 4.7025V4.7025ZM27.4986 23.7762C27.4994 24.1548 27.4137 24.5286 27.2483 24.8691C27.0828 25.2097 26.8418 25.5079 26.5436 25.7413C26.2619 25.9678 25.9337 26.1294 25.5824 26.2148C25.2311 26.3001 24.8654 26.307 24.5111 26.235L21.5799 25.25C20.4711 24.9315 19.296 24.9245 18.1836 25.23L10.9536 27.365C10.2589 27.5566 9.5238 27.544 8.83611 27.3288L5.21861 26.2037C4.43567 25.9773 3.7473 25.5031 3.25685 24.8521C2.7664 24.2012 2.50034 23.4088 2.49861 22.5938V17.5C2.4958 16.9947 2.59637 16.4942 2.79413 16.0293C2.9919 15.5643 3.28268 15.1447 3.64861 14.7962C4.22143 14.2503 4.95113 13.8979 5.73486 13.7888C6.23874 15.0377 6.98908 16.1724 7.94111 17.125L12.3999 21.4412C13.0967 22.1236 14.0333 22.5058 15.0086 22.5058C15.984 22.5058 16.9205 22.1236 17.6174 21.4412L22.0711 17.1125C23.0683 16.1113 23.8408 14.9092 24.3374 13.5863L25.0086 13.8087C25.7366 14.0696 26.3663 14.5487 26.812 15.1807C27.2576 15.8126 27.4974 16.5667 27.4986 17.34V23.7762Z" fill="#374957"/>
</g>
<defs>
<clipPath id="clip0_409_929">
<rect width="30" height="30" fill="white"/>
</clipPath>
</defs>
</svg>
