<svg width="30" height="30" viewBox="0 0 30 30" fill="none" xmlns="http://www.w3.org/2000/svg">
<g clip-path="url(#clip0_409_883)">
<path d="M28.7498 20.8159L25.8248 18.5659C25.103 17.8788 24.1442 17.4962 23.1477 17.4976C22.1512 17.499 21.1935 17.8843 20.4736 18.5734L18.6373 20.0334C16.6926 19.2284 14.926 18.047 13.4392 16.5572C11.9524 15.0674 10.7746 13.2985 9.97357 11.3521L11.4211 9.53212C12.1107 8.81234 12.4964 7.85447 12.4981 6.85763C12.4997 5.86078 12.1171 4.90166 11.4298 4.17962L9.18232 1.24962C9.14931 1.20561 9.1134 1.16385 9.07482 1.12462C8.36097 0.407352 7.3935 -0.000132337 6.38158 -0.00972281C5.36967 -0.0193133 4.39464 0.369761 3.66732 1.07337L2.22982 2.32337C-7.41893 12.5859 17.4798 37.5046 27.7298 27.6984L28.8673 26.3871C29.5917 25.6607 29.9985 24.6767 29.9985 23.6509C29.9985 22.625 29.5917 21.641 28.8673 20.9146C28.83 20.8796 28.7908 20.8466 28.7498 20.8159ZM27.0448 24.6909L25.9061 26.0034C18.4848 33.0221 -3.12517 12.6421 3.93358 4.15587L5.37108 2.90587C5.62 2.65832 5.95419 2.51537 6.30513 2.5063C6.65608 2.49724 6.9972 2.62275 7.25858 2.85712L9.49107 5.76087C9.5238 5.80511 9.55973 5.84689 9.59857 5.88587C9.85391 6.14339 9.99717 6.49135 9.99717 6.854C9.99717 7.21664 9.85391 7.5646 9.59857 7.82212C9.5634 7.85404 9.53041 7.88829 9.49982 7.92462L7.55482 10.3746C7.41634 10.5481 7.32656 10.7554 7.29471 10.975C7.26285 11.1947 7.29007 11.4189 7.37357 11.6246C8.31501 14.1435 9.78691 16.4305 11.6895 18.3308C13.5922 20.231 15.881 21.7001 18.4011 22.6384C18.604 22.7157 18.8236 22.7389 19.0381 22.7056C19.2527 22.6723 19.4549 22.5836 19.6248 22.4484L22.0748 20.4996C22.1116 20.47 22.1467 20.4383 22.1798 20.4046C22.3189 20.2703 22.4842 20.1661 22.6653 20.0984C22.8464 20.0307 23.0395 20.001 23.2326 20.0111C23.4256 20.0211 23.6146 20.0708 23.7876 20.157C23.9607 20.2432 24.1142 20.3641 24.2386 20.5121L27.1461 22.7459C27.3844 23.0206 27.5066 23.3773 27.4868 23.7405C27.467 24.1037 27.3067 24.4449 27.0398 24.6921L27.0448 24.6909ZM-8.99881e-05 3.20822e-05C-0.235843 0.22773 0.327656 0.0028801 -8.99881e-05 3.20822e-05C-0.227788 -0.235721 -0.00293802 0.327778 -8.99881e-05 3.20822e-05C0.00275803 -0.327714 -0.23185 0.231792 -8.99881e-05 3.20822e-05C0.23167 -0.231728 -0.327836 0.0028801 -8.99881e-05 3.20822e-05C0.235663 -0.227666 -0.327836 -0.00281595 -8.99881e-05 3.20822e-05C0.327656 0.0028801 -0.23185 -0.231728 -8.99881e-05 3.20822e-05Z" fill="#374957"/>
</g>
<defs>
<clipPath id="clip0_409_883">
<rect width="30" height="30" fill="white"/>
</clipPath>
</defs>
</svg>
