<svg width="24" height="25" viewBox="0 0 24 25" fill="none" xmlns="http://www.w3.org/2000/svg">
<path d="M3 6.21545H5H21" stroke="#191F26" stroke-width="2" stroke-linecap="round" stroke-linejoin="round"/>
<path d="M19 6.21545V20.2155C19 20.7459 18.7893 21.2546 18.4142 21.6297C18.0391 22.0047 17.5304 22.2155 17 22.2155H7C6.46957 22.2155 5.96086 22.0047 5.58579 21.6297C5.21071 21.2546 5 20.7459 5 20.2155V6.21545M8 6.21545V4.21545C8 3.68502 8.21071 3.17631 8.58579 2.80124C8.96086 2.42617 9.46957 2.21545 10 2.21545H14C14.5304 2.21545 15.0391 2.42617 15.4142 2.80124C15.7893 3.17631 16 3.68502 16 4.21545V6.21545" stroke="#191F26" stroke-width="2" stroke-linecap="round" stroke-linejoin="round"/>
<path d="M10 11.2155V17.2155" stroke="#191F26" stroke-width="2" stroke-linecap="round" stroke-linejoin="round"/>
<path d="M14 11.2155V17.2155" stroke="#191F26" stroke-width="2" stroke-linecap="round" stroke-linejoin="round"/>
</svg>
